<svg xmlns="http://www.w3.org/2000/svg" xmlns:xlink="http://www.w3.org/1999/xlink" contentStyleType="text/css" data-diagram-type="CLASS" height="951px" preserveAspectRatio="none" style="width:2152px;height:951px;background:#FFFFFF;" version="1.1" viewBox="0 0 2152 951" width="2152px" zoomAndPan="magnify"><defs/><g><!--class Administrador--><g class="entity" data-entity="Administrador" data-source-line="5" data-uid="ent0002" id="entity_Administrador"><rect fill="#F1F1F1" height="34.2969" rx="2.5" ry="2.5" style="stroke:#181818;stroke-width:0.5;" width="105.0801" x="7" y="300.46"/><text fill="#000000" font-family="sans-serif" font-size="14" lengthAdjust="spacing" textLength="99.0801" x="10" y="318.4551">Administrador</text><line style="stroke:#181818;stroke-width:0.5;" x1="8" x2="111.0801" y1="326.7569" y2="326.7569"/></g><g class="entity" data-entity="GMN3" data-source-line="7" data-uid="ent0004" id="entity_GMN3"><path d="M211.08,13.04 L211.08,38.1728 L736.7885,38.1728 L736.7885,23.04 L726.7885,13.04 L211.08,13.04" fill="#FEFFDD" style="stroke:#181818;stroke-width:0.5;"/><path d="M726.7885,13.04 L726.7885,23.04 L736.7885,23.04 L726.7885,13.04" fill="#FEFFDD" style="stroke:#181818;stroke-width:1;"/><text fill="#000000" font-family="sans-serif" font-size="13" lengthAdjust="spacing" textLength="504.7085" x="217.08" y="30.1069">Administrador &#233; um conceito do neg&#243;cio e dos componentes de autentica&#231;&#227;o</text></g><!--class Item--><g class="entity" data-entity="Item" data-source-line="10" data-uid="ent0006" id="entity_Item"><rect fill="#F1F1F1" height="83.1875" rx="2.5" ry="2.5" style="stroke:#181818;stroke-width:0.5;" width="102.9043" x="1954.91" y="276.01"/><text fill="#000000" font-family="sans-serif" font-size="14" lengthAdjust="spacing" textLength="31.8691" x="1990.4276" y="294.0051">Item</text><line style="stroke:#181818;stroke-width:0.5;" x1="1955.91" x2="2056.8143" y1="302.3069" y2="302.3069"/><text fill="#000000" font-family="sans-serif" font-size="14" lengthAdjust="spacing" textLength="90.9043" x="1960.91" y="319.302">nomeDoItem</text><text fill="#000000" font-family="sans-serif" font-size="14" lengthAdjust="spacing" textLength="90.7334" x="1960.91" y="335.5989">precoDoItem</text><text fill="#000000" font-family="sans-serif" font-size="14" lengthAdjust="spacing" textLength="49.6221" x="1960.91" y="351.8957">isMenu</text></g><!--class Menu--><g class="entity" data-entity="Menu" data-source-line="16" data-uid="ent0007" id="entity_Menu"><rect fill="#F1F1F1" height="34.2969" rx="2.5" ry="2.5" style="stroke:#181818;stroke-width:0.5;" width="44.4385" x="1136.61" y="300.46"/><text fill="#000000" font-family="sans-serif" font-size="14" lengthAdjust="spacing" textLength="38.4385" x="1139.61" y="318.4551">Menu</text><line style="stroke:#181818;stroke-width:0.5;" x1="1137.61" x2="1180.0485" y1="326.7569" y2="326.7569"/></g><!--class Pedido--><g class="entity" data-entity="Pedido" data-source-line="19" data-uid="ent0008" id="entity_Pedido"><rect fill="#F1F1F1" height="83.1875" rx="2.5" ry="2.5" style="stroke:#181818;stroke-width:0.5;" width="215.8271" x="1551.86" y="543.01"/><text fill="#000000" font-family="sans-serif" font-size="14" lengthAdjust="spacing" textLength="47.2842" x="1636.1315" y="561.0051">Pedido</text><line style="stroke:#181818;stroke-width:0.5;" x1="1552.86" x2="1766.6871" y1="569.3069" y2="569.3069"/><text fill="#000000" font-family="sans-serif" font-size="14" lengthAdjust="spacing" textLength="203.8271" x="1557.86" y="586.302">dataHoraDeCriacaoDoPedido</text><text fill="#000000" font-family="sans-serif" font-size="14" lengthAdjust="spacing" textLength="120.9482" x="1557.86" y="602.5989">numeroDoPedido</text><text fill="#000000" font-family="sans-serif" font-size="14" lengthAdjust="spacing" textLength="31.5068" x="1557.86" y="618.8957">nota</text></g><g class="entity" data-entity="GMN9" data-source-line="25" data-uid="ent0010" id="entity_GMN9"><path d="M1867.69,572.04 L1867.69,580.61 L1767.92,584.61 L1867.69,588.61 L1867.69,597.1728 A0,0 0 0 0 1867.69,597.1728 L2145.0274,597.1728 A0,0 0 0 0 2145.0274,597.1728 L2145.0274,582.04 L2135.0274,572.04 L1867.69,572.04 A0,0 0 0 0 1867.69,572.04" fill="#FEFFDD" style="stroke:#181818;stroke-width:0.5;"/><path d="M2135.0274,572.04 L2135.0274,582.04 L2145.0274,582.04 L2135.0274,572.04" fill="#FEFFDD" style="stroke:#181818;stroke-width:0.5;"/><text fill="#000000" font-family="sans-serif" font-size="13" lengthAdjust="spacing" textLength="256.3374" x="1873.69" y="589.1069">Pode ter Itens para levantar mais tarde</text></g><!--class estadoDeAlteracaoDoPedido--><g class="entity" data-entity="estadoDeAlteracaoDoPedido" data-source-line="28" data-uid="ent0012" id="entity_estadoDeAlteracaoDoPedido"><rect fill="#F1F1F1" height="50.5938" rx="2.5" ry="2.5" style="stroke:#181818;stroke-width:0.5;" width="206.1973" x="1903.26" y="632.31"/><text fill="#000000" font-family="sans-serif" font-size="14" lengthAdjust="spacing" textLength="200.1973" x="1906.26" y="650.3051">estadoDeAlteracaoDoPedido</text><line style="stroke:#181818;stroke-width:0.5;" x1="1904.26" x2="2108.4573" y1="658.6069" y2="658.6069"/><text fill="#000000" font-family="sans-serif" font-size="14" lengthAdjust="spacing" textLength="133.9844" x="1909.26" y="675.602">descricaoDoEstado</text></g><!--class estadoDeConclusaoDoPedido--><g class="entity" data-entity="estadoDeConclusaoDoPedido" data-source-line="32" data-uid="ent0013" id="entity_estadoDeConclusaoDoPedido"><rect fill="#F1F1F1" height="50.5938" rx="2.5" ry="2.5" style="stroke:#181818;stroke-width:0.5;" width="211.5635" x="1900.58" y="486.31"/><text fill="#000000" font-family="sans-serif" font-size="14" lengthAdjust="spacing" textLength="205.5635" x="1903.58" y="504.3051">estadoDeConclusaoDoPedido</text><line style="stroke:#181818;stroke-width:0.5;" x1="1901.58" x2="2111.1435" y1="512.6069" y2="512.6069"/><text fill="#000000" font-family="sans-serif" font-size="14" lengthAdjust="spacing" textLength="133.9844" x="1906.58" y="529.602">descricaoDoEstado</text></g><!--class FuncionarioDaBanca--><g class="entity" data-entity="FuncionarioDaBanca" data-source-line="36" data-uid="ent0014" id="entity_FuncionarioDaBanca"><rect fill="#F1F1F1" height="34.2969" rx="2.5" ry="2.5" style="stroke:#181818;stroke-width:0.5;" width="150.3066" x="398.78" y="480.46"/><text fill="#000000" font-family="sans-serif" font-size="14" lengthAdjust="spacing" textLength="144.3066" x="401.78" y="498.4551">FuncionarioDaBanca</text><line style="stroke:#181818;stroke-width:0.5;" x1="399.78" x2="548.0866" y1="506.7569" y2="506.7569"/></g><g class="entity" data-entity="GMN15" data-source-line="38" data-uid="ent0016" id="entity_GMN15"><path d="M874.97,637.04 L874.97,662.1728 L1442.6746,662.1728 L1442.6746,647.04 L1432.6746,637.04 L874.97,637.04" fill="#FEFFDD" style="stroke:#181818;stroke-width:0.5;"/><path d="M1432.6746,637.04 L1432.6746,647.04 L1442.6746,647.04 L1432.6746,637.04" fill="#FEFFDD" style="stroke:#181818;stroke-width:1;"/><text fill="#000000" font-family="sans-serif" font-size="13" lengthAdjust="spacing" textLength="546.7046" x="880.97" y="654.1069">FuncionarioDaBanca &#233; um conceito do neg&#243;cio e dos componentes de autentica&#231;&#227;o</text></g><!--class UtilizadorNaoRegistado--><g class="entity" data-entity="UtilizadorNaoRegistado" data-source-line="41" data-uid="ent0018" id="entity_UtilizadorNaoRegistado"><rect fill="#F1F1F1" height="34.2969" rx="2.5" ry="2.5" style="stroke:#181818;stroke-width:0.5;" width="170.0898" x="388.89" y="144.46"/><text fill="#000000" font-family="sans-serif" font-size="14" lengthAdjust="spacing" textLength="164.0898" x="391.89" y="162.4551">UtilizadorNaoRegistado</text><line style="stroke:#181818;stroke-width:0.5;" x1="389.89" x2="557.9798" y1="170.7569" y2="170.7569"/></g><g class="entity" data-entity="GMN19" data-source-line="43" data-uid="ent0020" id="entity_GMN19"><path d="M865.79,162.04 L865.79,165.04 L559.36,163.21 L865.79,173.04 L865.79,187.1728 A0,0 0 0 0 865.79,187.1728 L1451.8647,187.1728 A0,0 0 0 0 1451.8647,187.1728 L1451.8647,172.04 L1441.8647,162.04 L865.79,162.04 A0,0 0 0 0 865.79,162.04" fill="#FEFFDD" style="stroke:#181818;stroke-width:0.5;"/><path d="M1441.8647,162.04 L1441.8647,172.04 L1451.8647,172.04 L1441.8647,162.04" fill="#FEFFDD" style="stroke:#181818;stroke-width:0.5;"/><text fill="#000000" font-family="sans-serif" font-size="13" lengthAdjust="spacing" textLength="565.0747" x="871.79" y="179.1069">UtilizadorNaoRegistado &#233; um conceito do neg&#243;cio e dos componentes de autentica&#231;&#227;o</text></g><!--class Ticket--><g class="entity" data-entity="Ticket" data-source-line="46" data-uid="ent0022" id="entity_Ticket"><rect fill="#F1F1F1" height="34.2969" rx="2.5" ry="2.5" style="stroke:#181818;stroke-width:0.5;" width="48.3486" x="1134.65" y="697.46"/><text fill="#000000" font-family="sans-serif" font-size="14" lengthAdjust="spacing" textLength="42.3486" x="1137.65" y="715.4551">Ticket</text><line style="stroke:#181818;stroke-width:0.5;" x1="1135.65" x2="1181.9986" y1="723.7569" y2="723.7569"/></g><!--class Cliente--><g class="entity" data-entity="Cliente" data-source-line="48" data-uid="ent0023" id="entity_Cliente"><rect fill="#F1F1F1" height="34.2969" rx="2.5" ry="2.5" style="stroke:#181818;stroke-width:0.5;" width="55.1436" x="1131.25" y="567.46"/><text fill="#000000" font-family="sans-serif" font-size="14" lengthAdjust="spacing" textLength="49.1436" x="1134.25" y="585.4551">Cliente</text><line style="stroke:#181818;stroke-width:0.5;" x1="1132.25" x2="1185.3936" y1="593.7569" y2="593.7569"/></g><!--link Administrador to GMN3--><g class="link" data-entity-1="Administrador" data-entity-2="GMN3" data-source-line="7" data-uid="lnk5" id="link_Administrador_GMN3"><path d="M60.28,300.1 C60.64,253.54 68.61,126.13 142.08,65.61 C210.63,9.14 315.92,6 389.25,12.55" fill="none" id="Administrador-GMN3" style="stroke:#181818;stroke-width:1;stroke-dasharray:7.0,7.0;"/></g><!--link FuncionarioDaBanca to GMN15--><g class="link" data-entity-1="FuncionarioDaBanca" data-entity-2="GMN15" data-source-line="38" data-uid="lnk17" id="link_FuncionarioDaBanca_GMN15"><path d="M520.77,515.22 C592.99,542.21 738.19,593.41 865.79,619.61 C900.99,626.83 938.95,632.35 975.48,636.56" fill="none" id="FuncionarioDaBanca-GMN15" style="stroke:#181818;stroke-width:1;stroke-dasharray:7.0,7.0;"/></g><!--link Administrador to Menu--><g class="link" data-entity-1="Administrador" data-entity-2="Menu" data-source-line="50" data-uid="lnk24" id="link_Administrador_Menu"><path codeLine="50" d="M93.8,335.13 C123.59,349.77 168.94,369.52 211.08,377.61 C440.54,421.65 503.73,394.13 736.79,377.61 C891.09,366.67 1074.82,333.45 1136.47,321.74" fill="none" id="Administrador-Menu" style="stroke:#181818;stroke-width:1;"/><polygon fill="#000000" points="464.4296,369.1122,455.3475,366.2897,455.423,372.167,464.4296,369.1122" style="stroke:#000000;stroke-width:1;"/><text fill="#000000" font-family="sans-serif" font-size="13" lengthAdjust="spacing" textLength="24.0703" x="468.43" y="373.6769">cria</text><text fill="#000000" font-family="sans-serif" font-size="13" lengthAdjust="spacing" textLength="8.271" x="95.1086" y="354.8801">1</text><text fill="#000000" font-family="sans-serif" font-size="13" lengthAdjust="spacing" textLength="23.0356" x="1105.6442" y="336.512">1..*</text></g><!--link Administrador to Menu--><g class="link" data-entity-1="Administrador" data-entity-2="Menu" data-source-line="59" data-uid="lnk33" id="link_Administrador_Menu"><path codeLine="59" d="M107.37,299.96 C118.59,296.5 130.63,293.39 142.08,291.61 C446.73,244.21 527.72,279.19 835.79,291.61 C949.28,296.18 1084.73,309.79 1136.38,315.27" fill="none" id="Administrador-Menu-1" style="stroke:#181818;stroke-width:1;"/><polygon fill="#000000" points="468.9294,259.2508,459.9291,256.1776,459.8416,262.0548,468.9294,259.2508" style="stroke:#000000;stroke-width:1;"/><text fill="#000000" font-family="sans-serif" font-size="13" lengthAdjust="spacing" textLength="15.6914" x="472.93" y="263.6769">v&#234;</text><text fill="#000000" font-family="sans-serif" font-size="13" lengthAdjust="spacing" textLength="8.271" x="112.8344" y="289.3455">1</text><text fill="#000000" font-family="sans-serif" font-size="13" lengthAdjust="spacing" textLength="8.271" x="1120.3214" y="309.3442">1</text></g><!--link Administrador to Menu--><g class="link" data-entity-1="Administrador" data-entity-2="Menu" data-source-line="61" data-uid="lnk35" id="link_Administrador_Menu"><path codeLine="61" d="M112.36,317.61 C309.05,317.61 1004.94,317.61 1136.34,317.61" fill="none" id="Administrador-Menu-2" style="stroke:#181818;stroke-width:1;"/><polygon fill="#000000" points="464.43,309.1764,455.3849,306.2375,455.3849,312.1153,464.43,309.1764" style="stroke:#000000;stroke-width:1;"/><text fill="#000000" font-family="sans-serif" font-size="13" lengthAdjust="spacing" textLength="24.0703" x="468.43" y="313.6769">cria</text><text fill="#000000" font-family="sans-serif" font-size="13" lengthAdjust="spacing" textLength="8.271" x="120.0134" y="330.6938">1</text><text fill="#000000" font-family="sans-serif" font-size="13" lengthAdjust="spacing" textLength="23.0356" x="1105.4841" y="312.9582">1..*</text></g><!--link Administrador to Pedido--><g class="link" data-entity-1="Administrador" data-entity-2="Pedido" data-source-line="51" data-uid="lnk25" id="link_Administrador_Pedido"><path codeLine="51" d="M67.23,335.12 C79.25,365.2 106.6,427.79 142.08,472.61 C167.31,504.47 176.99,510.48 211.08,532.61 C480.32,707.41 552.38,768.19 865.79,837.61 C1120.1,893.94 1214.33,944.5 1451.86,837.61 C1545.26,795.58 1609.82,687.04 1639.77,626.68" fill="none" id="Administrador-Pedido" style="stroke:#181818;stroke-width:1;"/><polygon fill="#000000" points="788.7062,807.0879,780.3485,802.5493,779.2769,808.3287,788.7062,807.0879" style="stroke:#000000;stroke-width:1;"/><text fill="#000000" font-family="sans-serif" font-size="13" lengthAdjust="spacing" textLength="30.5513" x="792.79" y="810.6769">gerir</text><text fill="#000000" font-family="sans-serif" font-size="13" lengthAdjust="spacing" textLength="8.271" x="60.4015" y="354.867">1</text><text fill="#000000" font-family="sans-serif" font-size="13" lengthAdjust="spacing" textLength="23.0356" x="1638.4706" y="646.3484">1..*</text></g><!--link Administrador to FuncionarioDaBanca--><g class="link" data-entity-1="Administrador" data-entity-2="FuncionarioDaBanca" data-source-line="52" data-uid="lnk26" id="link_Administrador_FuncionarioDaBanca"><path codeLine="52" d="M66.04,334.89 C76.11,363.52 100.42,420.29 142.08,447.61 C218.84,497.93 326.88,505.18 398.35,503.36" fill="none" id="Administrador-FuncionarioDaBanca" style="stroke:#181818;stroke-width:1;"/><polygon fill="#000000" points="151.5396,441.4373,144.801,434.726,142.1432,439.9686,151.5396,441.4373" style="stroke:#000000;stroke-width:1;"/><text fill="#000000" font-family="sans-serif" font-size="13" lengthAdjust="spacing" textLength="24.0703" x="156.08" y="443.6769">cria</text><text fill="#000000" font-family="sans-serif" font-size="13" lengthAdjust="spacing" textLength="8.271" x="69.4301" y="354.8772">1</text><text fill="#000000" font-family="sans-serif" font-size="13" lengthAdjust="spacing" textLength="23.0356" x="367.8678" y="516.5714">1..*</text></g><!--link Administrador to Item--><g class="link" data-entity-1="Administrador" data-entity-2="Item" data-source-line="53" data-uid="lnk27" id="link_Administrador_Item"><path codeLine="53" d="M68.47,300.19 C87.1,261.48 137.72,168.42 211.08,126.61 C313.09,68.46 355.52,91.61 472.93,91.61 C472.93,91.61 472.93,91.61 1660.78,91.61 C1793.49,91.61 1914.8,210.27 1971.55,275.63" fill="none" id="Administrador-Item" style="stroke:#181818;stroke-width:1;"/><polygon fill="#000000" points="1149.3296,83.1119,1140.2473,80.2899,1140.3232,86.1673,1149.3296,83.1119" style="stroke:#000000;stroke-width:1;"/><text fill="#000000" font-family="sans-serif" font-size="13" lengthAdjust="spacing" textLength="24.0703" x="1153.33" y="87.6769">cria</text><text fill="#000000" font-family="sans-serif" font-size="13" lengthAdjust="spacing" textLength="8.271" x="62.0846" y="289.3353">1</text><text fill="#000000" font-family="sans-serif" font-size="13" lengthAdjust="spacing" textLength="23.0356" x="1941.1718" y="264.8226">1..*</text></g><!--link FuncionarioDaBanca to Pedido--><g class="link" data-entity-1="FuncionarioDaBanca" data-entity-2="Pedido" data-source-line="54" data-uid="lnk28" id="link_FuncionarioDaBanca_Pedido"><path codeLine="54" d="M491.89,515.2 C542.66,566.43 700.21,715.13 865.79,766.61 C1114.52,843.93 1208.15,858.54 1451.86,766.61 C1525.72,738.75 1590.33,671.19 1626.93,626.69" fill="none" id="FuncionarioDaBanca-Pedido" style="stroke:#181818;stroke-width:1;"/><polygon fill="#000000" points="1121.8061,758.6652,1113.0916,754.8561,1112.517,760.7058,1121.8061,758.6652" style="stroke:#000000;stroke-width:1;"/><text fill="#000000" font-family="sans-serif" font-size="13" lengthAdjust="spacing" textLength="79.917" x="1125.83" y="762.6769">pode alterar</text><text fill="#000000" font-family="sans-serif" font-size="13" lengthAdjust="spacing" textLength="8.271" x="488.2057" y="534.9715">1</text><text fill="#000000" font-family="sans-serif" font-size="13" lengthAdjust="spacing" textLength="23.0356" x="1597.1426" y="646.36">1..*</text></g><!--link FuncionarioDaBanca to Pedido--><g class="link" data-entity-1="FuncionarioDaBanca" data-entity-2="Pedido" data-source-line="55" data-uid="lnk29" id="link_FuncionarioDaBanca_Pedido"><path codeLine="55" d="M549.3,492.67 C608.28,488.78 692.8,483.26 766.79,478.61 C810.78,475.84 821.73,473.98 865.79,472.61 C1139.47,464.1 1208.05,471.83 1481.86,471.61 C1499.64,471.59 1505.13,465.59 1521.86,471.61 C1561.31,485.78 1597.48,516.79 1622.73,542.74" fill="none" id="FuncionarioDaBanca-Pedido-1" style="stroke:#181818;stroke-width:1;"/><polygon fill="#000000" points="1127.3246,459.4094,1118.4262,456.0522,1118.1524,461.9237,1127.3246,459.4094" style="stroke:#000000;stroke-width:1;"/><text fill="#000000" font-family="sans-serif" font-size="13" lengthAdjust="spacing" textLength="68.9927" x="1131.33" y="463.6769">pode listar</text><text fill="#000000" font-family="sans-serif" font-size="13" lengthAdjust="spacing" textLength="8.271" x="557.126" y="504.9956">1</text><text fill="#000000" font-family="sans-serif" font-size="13" lengthAdjust="spacing" textLength="23.0356" x="1591.9962" y="531.9501">1..*</text></g><!--link FuncionarioDaBanca to Pedido--><g class="link" data-entity-1="FuncionarioDaBanca" data-entity-2="Pedido" data-source-line="62" data-uid="lnk36" id="link_FuncionarioDaBanca_Pedido"><path codeLine="62" d="M549.56,499.32 C713.27,503.58 1116.11,516.75 1451.86,549.61 C1484.41,552.79 1519.56,558.04 1551.5,563.52" fill="none" id="FuncionarioDaBanca-Pedido-2" style="stroke:#181818;stroke-width:1;"/><polygon fill="#000000" points="1138.8198,501.4961,1129.9811,497.9848,1129.6053,503.8507,1138.8198,501.4961" style="stroke:#000000;stroke-width:1;"/><text fill="#000000" font-family="sans-serif" font-size="13" lengthAdjust="spacing" textLength="45.043" x="1142.83" y="505.6769">regista</text><text fill="#000000" font-family="sans-serif" font-size="13" lengthAdjust="spacing" textLength="8.271" x="557.1623" y="512.2712">1</text><text fill="#000000" font-family="sans-serif" font-size="13" lengthAdjust="spacing" textLength="23.0356" x="1520.8281" y="574.7209">1..*</text></g><!--link Menu to Item--><g class="link" data-entity-1="Menu" data-entity-2="Item" data-source-line="56" data-uid="lnk30" id="link_Menu_Item"><path codeLine="56" d="M1181.15,317.61 C1290.83,317.61 1792.52,317.61 1954.66,317.61" fill="none" id="Menu-Item" style="stroke:#181818;stroke-width:1;"/><polygon fill="#000000" points="1649.78,309.1764,1640.7349,306.2375,1640.7349,312.1153,1649.78,309.1764" style="stroke:#000000;stroke-width:1;"/><text fill="#000000" font-family="sans-serif" font-size="13" lengthAdjust="spacing" textLength="25.7588" x="1653.78" y="313.6769">tem</text><text fill="#000000" font-family="sans-serif" font-size="13" lengthAdjust="spacing" textLength="8.271" x="1188.9215" y="331.9">1</text><text fill="#000000" font-family="sans-serif" font-size="13" lengthAdjust="spacing" textLength="23.0356" x="1923.9594" y="330.5998">1..*</text></g><!--link Pedido to Item--><g class="link" data-entity-1="Pedido" data-entity-2="Item" data-source-line="57" data-uid="lnk31" id="link_Pedido_Item"><path codeLine="57" d="M1715,542.59 C1780.67,491.71 1890.44,406.65 1954.54,356.98" fill="none" id="Pedido-Item" style="stroke:#181818;stroke-width:1;"/><polygon fill="#000000" points="1806.6423,439.1139,1797.6924,442.3309,1801.2926,446.9772,1806.6423,439.1139" style="stroke:#000000;stroke-width:1;"/><text fill="#000000" font-family="sans-serif" font-size="13" lengthAdjust="spacing" textLength="25.7588" x="1811.69" y="446.6769">tem</text><text fill="#000000" font-family="sans-serif" font-size="13" lengthAdjust="spacing" textLength="8.271" x="1714.8648" y="532.0853">1</text><text fill="#000000" font-family="sans-serif" font-size="13" lengthAdjust="spacing" textLength="23.0356" x="1923.8248" y="374.768">1..*</text></g><!--link UtilizadorNaoRegistado to Menu--><g class="link" data-entity-1="UtilizadorNaoRegistado" data-entity-2="Menu" data-source-line="58" data-uid="lnk32" id="link_UtilizadorNaoRegistado_Menu"><path codeLine="58" d="M559.38,175.07 C610.74,183.44 677.63,194.66 736.79,205.61 C780.93,213.77 792.17,214.99 835.79,225.61 C949.91,253.39 1084.44,294.61 1136.12,310.76" fill="none" id="UtilizadorNaoRegistado-Menu" style="stroke:#181818;stroke-width:1;"/><polygon fill="#000000" points="796.1571,204.3215,788.0255,199.3892,786.6794,205.1108,796.1571,204.3215" style="stroke:#000000;stroke-width:1;"/><text fill="#000000" font-family="sans-serif" font-size="13" lengthAdjust="spacing" textLength="15.6914" x="800.29" y="207.6769">v&#234;</text><text fill="#000000" font-family="sans-serif" font-size="13" lengthAdjust="spacing" textLength="8.271" x="567.0783" y="188.944">1</text><text fill="#000000" font-family="sans-serif" font-size="13" lengthAdjust="spacing" textLength="8.271" x="1120.7967" y="296.0442">1</text></g><!--link FuncionarioDaBanca to Menu--><g class="link" data-entity-1="FuncionarioDaBanca" data-entity-2="Menu" data-source-line="60" data-uid="lnk34" id="link_FuncionarioDaBanca_Menu"><path codeLine="60" d="M549.52,488.36 C602.59,480.57 675.12,467.48 736.79,447.61 C782.97,432.72 792.37,423.25 835.79,401.61 C849.31,394.86 851.64,390.92 865.79,385.61 C963.5,348.9 1087.29,327.98 1136.38,320.63" fill="none" id="FuncionarioDaBanca-Menu" style="stroke:#181818;stroke-width:1;"/><polygon fill="#000000" points="796.0975,391.8024,786.593,391.4622,788.2083,397.1138,796.0975,391.8024" style="stroke:#000000;stroke-width:1;"/><text fill="#000000" font-family="sans-serif" font-size="13" lengthAdjust="spacing" textLength="15.6914" x="800.29" y="397.6769">v&#234;</text><text fill="#000000" font-family="sans-serif" font-size="13" lengthAdjust="spacing" textLength="8.271" x="557.1185" y="483.8369">1</text><text fill="#000000" font-family="sans-serif" font-size="13" lengthAdjust="spacing" textLength="8.271" x="1120.3214" y="335.9395">1</text></g><!--link Pedido to estadoDeAlteracaoDoPedido--><g class="link" data-entity-1="Pedido" data-entity-2="estadoDeAlteracaoDoPedido" data-source-line="63" data-uid="lnk37" id="link_Pedido_estadoDeAlteracaoDoPedido"><path codeLine="63" d="M1767.92,607.3 C1810.98,616.43 1860.42,626.9 1903,635.92" fill="none" id="Pedido-estadoDeAlteracaoDoPedido" style="stroke:#181818;stroke-width:1;"/><polygon fill="#000000" points="1807.5814,606.2128,1799.3419,601.4629,1798.1236,607.2131,1807.5814,606.2128" style="stroke:#000000;stroke-width:1;"/><text fill="#000000" font-family="sans-serif" font-size="13" lengthAdjust="spacing" textLength="25.7588" x="1811.69" y="609.6769">tem</text><text fill="#000000" font-family="sans-serif" font-size="13" lengthAdjust="spacing" textLength="8.271" x="1775.8148" y="621.4947">1</text><text fill="#000000" font-family="sans-serif" font-size="13" lengthAdjust="spacing" textLength="8.271" x="1887.1258" y="646.9499">1</text></g><!--link Pedido to estadoDeConclusaoDoPedido--><g class="link" data-entity-1="Pedido" data-entity-2="estadoDeConclusaoDoPedido" data-source-line="64" data-uid="lnk38" id="link_Pedido_estadoDeConclusaoDoPedido"><path codeLine="64" d="M1767.92,561.91 C1810.1,552.97 1858.39,542.74 1900.36,533.85" fill="none" id="Pedido-estadoDeConclusaoDoPedido" style="stroke:#181818;stroke-width:1;"/><polygon fill="#000000" points="1807.5814,538.1401,1798.1236,537.1397,1799.3419,542.8899,1807.5814,538.1401" style="stroke:#000000;stroke-width:1;"/><text fill="#000000" font-family="sans-serif" font-size="13" lengthAdjust="spacing" textLength="25.7588" x="1811.69" y="543.6769">tem</text><text fill="#000000" font-family="sans-serif" font-size="13" lengthAdjust="spacing" textLength="8.271" x="1775.8148" y="572.9133">1</text><text fill="#000000" font-family="sans-serif" font-size="13" lengthAdjust="spacing" textLength="8.271" x="1884.2917" y="548.106">1</text></g><!--link Ticket to Pedido--><g class="link" data-entity-1="Ticket" data-entity-2="Pedido" data-source-line="65" data-uid="lnk39" id="link_Ticket_Pedido"><path codeLine="65" d="M1183.4,714.25 C1233.68,712.95 1354.8,706.98 1451.86,679.61 C1496.76,666.95 1544.22,645.77 1582.36,626.63" fill="none" id="Ticket-Pedido" style="stroke:#181818;stroke-width:1;"/><polygon fill="#000000" points="1491.7436,647.1039,1482.2787,646.1736,1483.5395,651.9146,1491.7436,647.1039" style="stroke:#000000;stroke-width:1;"/><text fill="#000000" font-family="sans-serif" font-size="13" lengthAdjust="spacing" textLength="25.7588" x="1495.86" y="652.6769">tem</text><text fill="#000000" font-family="sans-serif" font-size="13" lengthAdjust="spacing" textLength="8.271" x="1191.1161" y="728.254">1</text><text fill="#000000" font-family="sans-serif" font-size="13" lengthAdjust="spacing" textLength="8.271" x="1561.9143" y="646.2908">1</text></g><!--link FuncionarioDaBanca to Ticket--><g class="link" data-entity-1="FuncionarioDaBanca" data-entity-2="Ticket" data-source-line="66" data-uid="lnk40" id="link_FuncionarioDaBanca_Ticket"><path codeLine="66" d="M503.53,515.15 C566.37,552.73 722.37,640.76 865.79,679.61 C963.13,705.97 1084.09,712.49 1134.3,714.09" fill="none" id="FuncionarioDaBanca-Ticket" style="stroke:#181818;stroke-width:1;"/><polygon fill="#000000" points="776.5585,642.6803,768.8162,637.1569,767.0482,642.7625,776.5585,642.6803" style="stroke:#000000;stroke-width:1;"/><text fill="#000000" font-family="sans-serif" font-size="13" lengthAdjust="spacing" textLength="54.1455" x="780.79" y="645.6769">imprime</text><text fill="#000000" font-family="sans-serif" font-size="13" lengthAdjust="spacing" textLength="8.271" x="503.4105" y="534.9062">1</text><text fill="#000000" font-family="sans-serif" font-size="13" lengthAdjust="spacing" textLength="23.0356" x="1103.4236" y="727.6986">1..*</text></g><!--link Cliente to Pedido--><g class="link" data-entity-1="Cliente" data-entity-2="Pedido" data-source-line="67" data-uid="lnk41" id="link_Cliente_Pedido"><path codeLine="67" d="M1186.65,584.61 C1254.21,584.61 1434.3,584.61 1551.51,584.61" fill="none" id="Cliente-Pedido" style="stroke:#181818;stroke-width:1;"/><polygon fill="#000000" points="1494.86,576.1764,1485.8149,573.2375,1485.8149,579.1153,1494.86,576.1764" style="stroke:#000000;stroke-width:1;"/><text fill="#000000" font-family="sans-serif" font-size="13" lengthAdjust="spacing" textLength="19.3667" x="1498.86" y="580.6769">faz</text><text fill="#000000" font-family="sans-serif" font-size="13" lengthAdjust="spacing" textLength="8.271" x="1194.4412" y="598.5216">1</text><text fill="#000000" font-family="sans-serif" font-size="13" lengthAdjust="spacing" textLength="23.0356" x="1520.8388" y="597.162">1..*</text></g><!--SRC=[hLDBRjj03DtFAGWj0oH0jruOIEmMxQ91KAG786OOcyXyX9bH5WbwcYoATDiZw6BbI9OhrrBY0bbfABv7FlwsR0WSvMqmILcwov03HDviCnYEf3C7hxO5f3bgIqafRJ4bk3IEFQSSqOG8oeTCFKyTUjeNQ1peu3MnX3O1F6tQtve3a5X9NAuEddoc1986conlrjZ-R9-38c-Wn1xIVidau4dIELg7OgXQL8RTczDNyetwCQ2B9UYzVKE6HS6JCfZnSuYufbLar2W1Uf_oZQCuCaD6uO_AkmcYCbCiKdo26YE2fGVq6ICuv0JoC7Iad5AMXgpfqWfvdBB8eQGZT_y-Th2_aWVQIZfectGgxLFZfSKU8uSrNg7NEAxXsFlUS_gUsV9ZsO1h3Dzemxs-aOPfn7lhk6LzJtcmLfOBKVspezM72ixFvNDnSLPrIxC0QIp2ybLWFuS5R2XoV0DxtF6JKfIjtWCdfZOjg2uhYjsUnV_csJA8GkkEPqfEES6bsctXF61cm7l2qEc7zjTy5mv1hrLoKhZZ0P_SdDXNC55vDN_RSysgvkzweFIREwOS-jyKtWTO0BiwiYEXxDP_fi0xV8Jb7m00]--></g></svg>