<svg xmlns="http://www.w3.org/2000/svg" xmlns:xlink="http://www.w3.org/1999/xlink" contentStyleType="text/css" data-diagram-type="CLASS" height="1019px" preserveAspectRatio="none" style="width:2152px;height:1019px;background:#FFFFFF;" version="1.1" viewBox="0 0 2152 1019" width="2152px" zoomAndPan="magnify"><defs/><g><!--class Administrador--><g class="entity" data-entity="Administrador" data-source-line="5" data-uid="ent0002" id="entity_Administrador"><rect fill="#F1F1F1" height="34.2969" rx="2.5" ry="2.5" style="stroke:#181818;stroke-width:0.5;" width="105.0801" x="7" y="345.78"/><text fill="#000000" font-family="sans-serif" font-size="14" lengthAdjust="spacing" textLength="99.0801" x="10" y="363.7751">Administrador</text><line style="stroke:#181818;stroke-width:0.5;" x1="8" x2="111.0801" y1="372.0769" y2="372.0769"/></g><g class="entity" data-entity="GMN3" data-source-line="7" data-uid="ent0004" id="entity_GMN3"><path d="M211.08,14.36 L211.08,39.4928 L736.7885,39.4928 L736.7885,24.36 L726.7885,14.36 L211.08,14.36" fill="#FEFFDD" style="stroke:#181818;stroke-width:0.5;"/><path d="M726.7885,14.36 L726.7885,24.36 L736.7885,24.36 L726.7885,14.36" fill="#FEFFDD" style="stroke:#181818;stroke-width:1;"/><text fill="#000000" font-family="sans-serif" font-size="13" lengthAdjust="spacing" textLength="504.7085" x="217.08" y="31.4269">Administrador &#233; um conceito do neg&#243;cio e dos componentes de autentica&#231;&#227;o</text></g><!--class Item--><g class="entity" data-entity="Item" data-source-line="10" data-uid="ent0006" id="entity_Item"><rect fill="#F1F1F1" height="99.4844" rx="2.5" ry="2.5" style="stroke:#181818;stroke-width:0.5;" width="142.7715" x="1934.97" y="290.19"/><text fill="#000000" font-family="sans-serif" font-size="14" lengthAdjust="spacing" textLength="31.8691" x="1990.4212" y="308.1851">Item</text><line style="stroke:#181818;stroke-width:0.5;" x1="1935.97" x2="2076.7415" y1="316.4869" y2="316.4869"/><text fill="#000000" font-family="sans-serif" font-size="14" lengthAdjust="spacing" textLength="90.9043" x="1940.97" y="333.482">nomeDoItem</text><text fill="#000000" font-family="sans-serif" font-size="14" lengthAdjust="spacing" textLength="130.7715" x="1940.97" y="349.7789">quantidadeDoItem</text><text fill="#000000" font-family="sans-serif" font-size="14" lengthAdjust="spacing" textLength="90.7334" x="1940.97" y="366.0757">precoDoItem</text><text fill="#000000" font-family="sans-serif" font-size="14" lengthAdjust="spacing" textLength="48.2822" x="1940.97" y="382.3726">moeda</text></g><!--class Menu--><g class="entity" data-entity="Menu" data-source-line="17" data-uid="ent0007" id="entity_Menu"><rect fill="#F1F1F1" height="34.2969" rx="2.5" ry="2.5" style="stroke:#181818;stroke-width:0.5;" width="44.4385" x="1136.61" y="322.78"/><text fill="#000000" font-family="sans-serif" font-size="14" lengthAdjust="spacing" textLength="38.4385" x="1139.61" y="340.7751">Menu</text><line style="stroke:#181818;stroke-width:0.5;" x1="1137.61" x2="1180.0485" y1="349.0769" y2="349.0769"/></g><!--class Pedido--><g class="entity" data-entity="Pedido" data-source-line="20" data-uid="ent0008" id="entity_Pedido"><rect fill="#F1F1F1" height="99.4844" rx="2.5" ry="2.5" style="stroke:#181818;stroke-width:0.5;" width="215.8271" x="1551.86" y="611.19"/><text fill="#000000" font-family="sans-serif" font-size="14" lengthAdjust="spacing" textLength="47.2842" x="1636.1315" y="629.1851">Pedido</text><line style="stroke:#181818;stroke-width:0.5;" x1="1552.86" x2="1766.6871" y1="637.4869" y2="637.4869"/><text fill="#000000" font-family="sans-serif" font-size="14" lengthAdjust="spacing" textLength="203.8271" x="1557.86" y="654.482">dataHoraDeCriacaoDoPedido</text><text fill="#000000" font-family="sans-serif" font-size="14" lengthAdjust="spacing" textLength="120.9482" x="1557.86" y="670.7789">numeroDoPedido</text><text fill="#000000" font-family="sans-serif" font-size="14" lengthAdjust="spacing" textLength="130.8193" x="1557.86" y="687.0757">quantidadeDeItem</text><text fill="#000000" font-family="sans-serif" font-size="14" lengthAdjust="spacing" textLength="31.5068" x="1557.86" y="703.3726">nota</text></g><g class="entity" data-entity="GMN9" data-source-line="27" data-uid="ent0010" id="entity_GMN9"><path d="M1867.69,648.36 L1867.69,656.93 L1767.92,660.93 L1867.69,664.93 L1867.69,673.4928 A0,0 0 0 0 1867.69,673.4928 L2145.0274,673.4928 A0,0 0 0 0 2145.0274,673.4928 L2145.0274,658.36 L2135.0274,648.36 L1867.69,648.36 A0,0 0 0 0 1867.69,648.36" fill="#FEFFDD" style="stroke:#181818;stroke-width:0.5;"/><path d="M2135.0274,648.36 L2135.0274,658.36 L2145.0274,658.36 L2135.0274,648.36" fill="#FEFFDD" style="stroke:#181818;stroke-width:0.5;"/><text fill="#000000" font-family="sans-serif" font-size="13" lengthAdjust="spacing" textLength="256.3374" x="1873.69" y="665.4269">Pode ter Itens para levantar mais tarde</text></g><!--class estadoDeAlteracaoDoPedido--><g class="entity" data-entity="estadoDeAlteracaoDoPedido" data-source-line="30" data-uid="ent0012" id="entity_estadoDeAlteracaoDoPedido"><rect fill="#F1F1F1" height="50.5938" rx="2.5" ry="2.5" style="stroke:#181818;stroke-width:0.5;" width="206.1973" x="1903.26" y="708.63"/><text fill="#000000" font-family="sans-serif" font-size="14" lengthAdjust="spacing" textLength="200.1973" x="1906.26" y="726.6251">estadoDeAlteracaoDoPedido</text><line style="stroke:#181818;stroke-width:0.5;" x1="1904.26" x2="2108.4573" y1="734.9269" y2="734.9269"/><text fill="#000000" font-family="sans-serif" font-size="14" lengthAdjust="spacing" textLength="133.9844" x="1909.26" y="751.922">descricaoDoEstado</text></g><!--class estadoDeConclusaoDoPedido--><g class="entity" data-entity="estadoDeConclusaoDoPedido" data-source-line="34" data-uid="ent0013" id="entity_estadoDeConclusaoDoPedido"><rect fill="#F1F1F1" height="50.5938" rx="2.5" ry="2.5" style="stroke:#181818;stroke-width:0.5;" width="211.5635" x="1900.58" y="562.63"/><text fill="#000000" font-family="sans-serif" font-size="14" lengthAdjust="spacing" textLength="205.5635" x="1903.58" y="580.6251">estadoDeConclusaoDoPedido</text><line style="stroke:#181818;stroke-width:0.5;" x1="1901.58" x2="2111.1435" y1="588.9269" y2="588.9269"/><text fill="#000000" font-family="sans-serif" font-size="14" lengthAdjust="spacing" textLength="133.9844" x="1906.58" y="605.922">descricaoDoEstado</text></g><!--class FuncionarioDaBanca--><g class="entity" data-entity="FuncionarioDaBanca" data-source-line="38" data-uid="ent0014" id="entity_FuncionarioDaBanca"><rect fill="#F1F1F1" height="34.2969" rx="2.5" ry="2.5" style="stroke:#181818;stroke-width:0.5;" width="150.3066" x="398.78" y="708.78"/><text fill="#000000" font-family="sans-serif" font-size="14" lengthAdjust="spacing" textLength="144.3066" x="401.78" y="726.7751">FuncionarioDaBanca</text><line style="stroke:#181818;stroke-width:0.5;" x1="399.78" x2="548.0866" y1="735.0769" y2="735.0769"/></g><g class="entity" data-entity="GMN15" data-source-line="40" data-uid="ent0016" id="entity_GMN15"><path d="M874.97,713.36 L874.97,721.93 L549.32,725.93 L874.97,729.93 L874.97,738.4928 A0,0 0 0 0 874.97,738.4928 L1442.6746,738.4928 A0,0 0 0 0 1442.6746,738.4928 L1442.6746,723.36 L1432.6746,713.36 L874.97,713.36 A0,0 0 0 0 874.97,713.36" fill="#FEFFDD" style="stroke:#181818;stroke-width:0.5;"/><path d="M1432.6746,713.36 L1432.6746,723.36 L1442.6746,723.36 L1432.6746,713.36" fill="#FEFFDD" style="stroke:#181818;stroke-width:0.5;"/><text fill="#000000" font-family="sans-serif" font-size="13" lengthAdjust="spacing" textLength="546.7046" x="880.97" y="730.4269">FuncionarioDaBanca &#233; um conceito do neg&#243;cio e dos componentes de autentica&#231;&#227;o</text></g><!--class FuncionarioDaCozinha--><g class="entity" data-entity="FuncionarioDaCozinha" data-source-line="43" data-uid="ent0018" id="entity_FuncionarioDaCozinha"><rect fill="#F1F1F1" height="34.2969" rx="2.5" ry="2.5" style="stroke:#181818;stroke-width:0.5;" width="162.8779" x="392.5" y="475.78"/><text fill="#000000" font-family="sans-serif" font-size="14" lengthAdjust="spacing" textLength="156.8779" x="395.5" y="493.7751">FuncionarioDaCozinha</text><line style="stroke:#181818;stroke-width:0.5;" x1="393.5" x2="554.3779" y1="502.0769" y2="502.0769"/></g><g class="entity" data-entity="GMN19" data-source-line="45" data-uid="ent0020" id="entity_GMN19"><path d="M869.14,421.36 L869.14,446.4928 A0,0 0 0 0 869.14,446.4928 L1002.69,446.4928 L555.62,485.96 L1010.69,446.4928 L1448.5179,446.4928 A0,0 0 0 0 1448.5179,446.4928 L1448.5179,431.36 L1438.5179,421.36 L869.14,421.36 A0,0 0 0 0 869.14,421.36" fill="#FEFFDD" style="stroke:#181818;stroke-width:0.5;"/><path d="M1438.5179,421.36 L1438.5179,431.36 L1448.5179,431.36 L1438.5179,421.36" fill="#FEFFDD" style="stroke:#181818;stroke-width:0.5;"/><text fill="#000000" font-family="sans-serif" font-size="13" lengthAdjust="spacing" textLength="558.3779" x="875.14" y="438.4269">FuncionarioDaCozinha &#233; um conceito do neg&#243;cio e dos componentes de autentica&#231;&#227;o</text></g><!--class UtilizadorNaoRegistado--><g class="entity" data-entity="UtilizadorNaoRegistado" data-source-line="48" data-uid="ent0022" id="entity_UtilizadorNaoRegistado"><rect fill="#F1F1F1" height="34.2969" rx="2.5" ry="2.5" style="stroke:#181818;stroke-width:0.5;" width="170.0898" x="388.89" y="145.78"/><text fill="#000000" font-family="sans-serif" font-size="14" lengthAdjust="spacing" textLength="164.0898" x="391.89" y="163.7751">UtilizadorNaoRegistado</text><line style="stroke:#181818;stroke-width:0.5;" x1="389.89" x2="557.9798" y1="172.0769" y2="172.0769"/></g><g class="entity" data-entity="GMN23" data-source-line="50" data-uid="ent0024" id="entity_GMN23"><path d="M865.79,163.36 L865.79,166.37 L559.36,164.54 L865.79,174.37 L865.79,188.4928 A0,0 0 0 0 865.79,188.4928 L1451.8647,188.4928 A0,0 0 0 0 1451.8647,188.4928 L1451.8647,173.36 L1441.8647,163.36 L865.79,163.36 A0,0 0 0 0 865.79,163.36" fill="#FEFFDD" style="stroke:#181818;stroke-width:0.5;"/><path d="M1441.8647,163.36 L1441.8647,173.36 L1451.8647,173.36 L1441.8647,163.36" fill="#FEFFDD" style="stroke:#181818;stroke-width:0.5;"/><text fill="#000000" font-family="sans-serif" font-size="13" lengthAdjust="spacing" textLength="565.0747" x="871.79" y="180.4269">UtilizadorNaoRegistado &#233; um conceito do neg&#243;cio e dos componentes de autentica&#231;&#227;o</text></g><!--class Ticket--><g class="entity" data-entity="Ticket" data-source-line="53" data-uid="ent0026" id="entity_Ticket"><rect fill="#F1F1F1" height="34.2969" rx="2.5" ry="2.5" style="stroke:#181818;stroke-width:0.5;" width="48.3486" x="1134.65" y="643.78"/><text fill="#000000" font-family="sans-serif" font-size="14" lengthAdjust="spacing" textLength="42.3486" x="1137.65" y="661.7751">Ticket</text><line style="stroke:#181818;stroke-width:0.5;" x1="1135.65" x2="1181.9986" y1="670.0769" y2="670.0769"/></g><!--link Administrador to GMN3--><g class="link" data-entity-1="Administrador" data-entity-2="GMN3" data-source-line="7" data-uid="lnk5" id="link_Administrador_GMN3"><path d="M62.8,345.46 C70.66,287.69 98.67,104.33 142.08,66.93 C211.56,7.07 321.83,6 395.75,13.87" fill="none" id="Administrador-GMN3" style="stroke:#181818;stroke-width:1;stroke-dasharray:7.0,7.0;"/></g><!--link Administrador to Menu--><g class="link" data-entity-1="Administrador" data-entity-2="Menu" data-source-line="55" data-uid="lnk27" id="link_Administrador_Menu"><path codeLine="55" d="M74.26,345.47 C88.92,328.36 113.91,303.36 142.08,292.93 C431.2,185.85 528.28,270.61 835.79,292.93 C949.9,301.21 1084.99,325.8 1136.46,335.71" fill="none" id="Administrador-Menu" style="stroke:#181818;stroke-width:1;"/><polygon fill="#000000" points="464.4298,232.4505,455.3581,229.5948,455.4121,235.4724,464.4298,232.4505" style="stroke:#000000;stroke-width:1;"/><text fill="#000000" font-family="sans-serif" font-size="13" lengthAdjust="spacing" textLength="24.0703" x="468.43" y="236.9969">cria</text><text fill="#000000" font-family="sans-serif" font-size="13" lengthAdjust="spacing" textLength="8.271" x="69.7202" y="334.6026">1</text><text fill="#000000" font-family="sans-serif" font-size="13" lengthAdjust="spacing" textLength="23.0356" x="1105.6319" y="348.5511">1..*</text></g><!--link Administrador to Menu--><g class="link" data-entity-1="Administrador" data-entity-2="Menu" data-source-line="65" data-uid="lnk37" id="link_Administrador_Menu"><path codeLine="65" d="M112.36,360.81 C229.14,356.14 521.79,345.06 766.79,340.93 C907.64,338.56 1077.06,339.37 1136.2,339.77" fill="none" id="Administrador-Menu-1" style="stroke:#181818;stroke-width:1;"/><polygon fill="#000000" points="468.9289,333.3937,459.8254,330.6412,459.9462,336.5178,468.9289,333.3937" style="stroke:#000000;stroke-width:1;"/><text fill="#000000" font-family="sans-serif" font-size="13" lengthAdjust="spacing" textLength="15.6914" x="472.93" y="337.9969">v&#234;</text><text fill="#000000" font-family="sans-serif" font-size="13" lengthAdjust="spacing" textLength="8.271" x="120.0134" y="373.609">1</text><text fill="#000000" font-family="sans-serif" font-size="13" lengthAdjust="spacing" textLength="8.271" x="1120.4175" y="334.6067">1</text></g><!--link Administrador to Menu--><g class="link" data-entity-1="Administrador" data-entity-2="Menu" data-source-line="68" data-uid="lnk40" id="link_Administrador_Menu"><path codeLine="68" d="M112.29,371.09 C141.26,375.25 178.09,379.86 211.08,381.93 C444.27,396.59 503.43,393.54 736.79,381.93 C890.5,374.28 1074.6,351.02 1136.41,342.83" fill="none" id="Administrador-Menu-2" style="stroke:#181818;stroke-width:1;"/><polygon fill="#000000" points="464.4281,373.3585,455.3054,370.6702,455.4675,376.5458,464.4281,373.3585" style="stroke:#000000;stroke-width:1;"/><text fill="#000000" font-family="sans-serif" font-size="13" lengthAdjust="spacing" textLength="24.0703" x="468.43" y="377.9969">cria</text><text fill="#000000" font-family="sans-serif" font-size="13" lengthAdjust="spacing" textLength="8.271" x="119.934" y="385.2703">1</text><text fill="#000000" font-family="sans-serif" font-size="13" lengthAdjust="spacing" textLength="23.0356" x="1105.5703" y="357.3176">1..*</text></g><!--link Administrador to Pedido--><g class="link" data-entity-1="Administrador" data-entity-2="Pedido" data-source-line="56" data-uid="lnk28" id="link_Administrador_Pedido"><path codeLine="56" d="M69.41,380.34 C89.04,416.59 140.09,499.19 211.08,527.93 C467.46,631.71 1176.96,595.47 1451.86,625.93 C1484.36,629.53 1519.51,634.91 1551.45,640.37" fill="none" id="Administrador-Pedido" style="stroke:#181818;stroke-width:1;"/><polygon fill="#000000" points="788.7148,594.3605,780.3137,589.9026,779.2979,595.6921,788.7148,594.3605" style="stroke:#000000;stroke-width:1;"/><text fill="#000000" font-family="sans-serif" font-size="13" lengthAdjust="spacing" textLength="30.5513" x="792.79" y="597.9969">gerir</text><text fill="#000000" font-family="sans-serif" font-size="13" lengthAdjust="spacing" textLength="8.271" x="63.2492" y="400.0564">1</text><text fill="#000000" font-family="sans-serif" font-size="13" lengthAdjust="spacing" textLength="23.0356" x="1520.7749" y="651.6044">1..*</text></g><!--link Administrador to FuncionarioDaBanca--><g class="link" data-entity-1="Administrador" data-entity-2="FuncionarioDaBanca" data-source-line="57" data-uid="lnk29" id="link_Administrador_FuncionarioDaBanca"><path codeLine="57" d="M60.2,380.42 C60.25,428.93 67.32,566.38 142.08,638.93 C210.71,705.52 323.87,722.76 398.42,726.39" fill="none" id="Administrador-FuncionarioDaBanca" style="stroke:#181818;stroke-width:1;"/><polygon fill="#000000" points="150.5753,634.0718,146.3538,625.5494,142.1507,629.6583,150.5753,634.0718" style="stroke:#000000;stroke-width:1;"/><text fill="#000000" font-family="sans-serif" font-size="13" lengthAdjust="spacing" textLength="24.0703" x="156.08" y="634.9969">cria</text><text fill="#000000" font-family="sans-serif" font-size="13" lengthAdjust="spacing" textLength="8.271" x="51.2186" y="400.1609">1</text><text fill="#000000" font-family="sans-serif" font-size="13" lengthAdjust="spacing" textLength="23.0356" x="367.672" y="739.1719">1..*</text></g><!--link Administrador to FuncionarioDaCozinha--><g class="link" data-entity-1="Administrador" data-entity-2="FuncionarioDaCozinha" data-source-line="58" data-uid="lnk30" id="link_Administrador_FuncionarioDaCozinha"><path codeLine="58" d="M71.66,380.5 C85.5,400.7 111.11,433.12 142.08,448.93 C220.52,488.98 322.45,496.99 392.33,496.88" fill="none" id="Administrador-FuncionarioDaCozinha" style="stroke:#181818;stroke-width:1;"/><polygon fill="#000000" points="151.78,442.2022,144.2802,436.3538,142.275,441.879,151.78,442.2022" style="stroke:#000000;stroke-width:1;"/><text fill="#000000" font-family="sans-serif" font-size="13" lengthAdjust="spacing" textLength="24.0703" x="156.08" y="444.9969">cria</text><text fill="#000000" font-family="sans-serif" font-size="13" lengthAdjust="spacing" textLength="8.271" x="76.6382" y="400.2654">1</text><text fill="#000000" font-family="sans-serif" font-size="13" lengthAdjust="spacing" textLength="23.0356" x="361.33" y="509.9367">1..*</text></g><!--link Administrador to Item--><g class="link" data-entity-1="Administrador" data-entity-2="Item" data-source-line="59" data-uid="lnk31" id="link_Administrador_Item"><path codeLine="59" d="M66,345.35 C80.94,300.46 127.09,181.41 211.08,127.93 C310.12,64.87 355.52,92.93 472.93,92.93 C472.93,92.93 472.93,92.93 1660.78,92.93 C1794.74,92.93 1912.39,217.77 1969.21,289.95" fill="none" id="Administrador-Item" style="stroke:#181818;stroke-width:1;"/><polygon fill="#000000" points="1149.3279,84.3509,1140.2011,81.6764,1140.3721,87.5518,1149.3279,84.3509" style="stroke:#000000;stroke-width:1;"/><text fill="#000000" font-family="sans-serif" font-size="13" lengthAdjust="spacing" textLength="24.0703" x="1153.33" y="88.9969">cria</text><text fill="#000000" font-family="sans-serif" font-size="13" lengthAdjust="spacing" textLength="8.271" x="58.7949" y="334.757">1</text><text fill="#000000" font-family="sans-serif" font-size="13" lengthAdjust="spacing" textLength="23.0356" x="1939.6756" y="279.3016">1..*</text></g><!--link FuncionarioDaBanca to Pedido--><g class="link" data-entity-1="FuncionarioDaBanca" data-entity-2="Pedido" data-source-line="60" data-uid="lnk32" id="link_FuncionarioDaBanca_Pedido"><path codeLine="60" d="M546.85,743.52 C710.54,780.53 1122.24,856.42 1451.86,772.93 C1499.97,760.74 1549.02,734.9 1587.29,711.1" fill="none" id="FuncionarioDaBanca-Pedido" style="stroke:#181818;stroke-width:1;"/><polygon fill="#000000" points="1121.8276,764.3407,1112.6953,761.6849,1112.8784,767.5599,1121.8276,764.3407" style="stroke:#000000;stroke-width:1;"/><text fill="#000000" font-family="sans-serif" font-size="13" lengthAdjust="spacing" textLength="79.917" x="1125.83" y="768.9969">pode alterar</text><text fill="#000000" font-family="sans-serif" font-size="13" lengthAdjust="spacing" textLength="8.271" x="557.4078" y="762.3481">1</text><text fill="#000000" font-family="sans-serif" font-size="13" lengthAdjust="spacing" textLength="23.0356" x="1553.5319" y="730.5641">1..*</text></g><!--link FuncionarioDaBanca to Pedido--><g class="link" data-entity-1="FuncionarioDaBanca" data-entity-2="Pedido" data-source-line="61" data-uid="lnk33" id="link_FuncionarioDaBanca_Pedido"><path codeLine="61" d="M516.52,743.48 C654.5,799.06 1107.95,960.31 1451.86,834.93 C1519.33,810.33 1580.06,752.98 1618.01,710.82" fill="none" id="FuncionarioDaBanca-Pedido-1" style="stroke:#181818;stroke-width:1;"/><polygon fill="#000000" points="1127.3278,826.3482,1118.1996,823.6787,1118.3738,829.5539,1127.3278,826.3482" style="stroke:#000000;stroke-width:1;"/><text fill="#000000" font-family="sans-serif" font-size="13" lengthAdjust="spacing" textLength="68.9927" x="1131.33" y="830.9969">pode listar</text><text fill="#000000" font-family="sans-serif" font-size="13" lengthAdjust="spacing" textLength="8.271" x="520.3787" y="763.2393">1</text><text fill="#000000" font-family="sans-serif" font-size="13" lengthAdjust="spacing" textLength="23.0356" x="1587.8551" y="730.6073">1..*</text></g><!--link FuncionarioDaBanca to Pedido--><g class="link" data-entity-1="FuncionarioDaBanca" data-entity-2="Pedido" data-source-line="69" data-uid="lnk41" id="link_FuncionarioDaBanca_Pedido"><path codeLine="69" d="M501.91,743.41 C563.38,782.07 719.84,873.94 865.79,905.93 C1120.23,961.7 1213.99,1012.07 1451.86,905.93 C1538.93,867.08 1602.1,770.57 1634.39,710.93" fill="none" id="FuncionarioDaBanca-Pedido-2" style="stroke:#181818;stroke-width:1;"/><polygon fill="#000000" points="1138.8279,897.3531,1129.7023,894.6747,1129.8708,900.5501,1138.8279,897.3531" style="stroke:#000000;stroke-width:1;"/><text fill="#000000" font-family="sans-serif" font-size="13" lengthAdjust="spacing" textLength="45.043" x="1142.83" y="901.9969">regista</text><text fill="#000000" font-family="sans-serif" font-size="13" lengthAdjust="spacing" textLength="8.271" x="501.2944" y="763.1478">1</text><text fill="#000000" font-family="sans-serif" font-size="13" lengthAdjust="spacing" textLength="23.0356" x="1632.5268" y="730.7321">1..*</text></g><!--link Menu to Item--><g class="link" data-entity-1="Menu" data-entity-2="Item" data-source-line="62" data-uid="lnk34" id="link_Menu_Item"><path codeLine="62" d="M1181.15,339.93 C1286.66,339.93 1754.97,339.93 1934.75,339.93" fill="none" id="Menu-Item" style="stroke:#181818;stroke-width:1;"/><polygon fill="#000000" points="1649.78,331.4964,1640.7349,328.5575,1640.7349,334.4353,1649.78,331.4964" style="stroke:#000000;stroke-width:1;"/><text fill="#000000" font-family="sans-serif" font-size="13" lengthAdjust="spacing" textLength="25.7588" x="1653.78" y="335.9969">tem</text><text fill="#000000" font-family="sans-serif" font-size="13" lengthAdjust="spacing" textLength="8.271" x="1188.9215" y="354.22">1</text><text fill="#000000" font-family="sans-serif" font-size="13" lengthAdjust="spacing" textLength="23.0356" x="1903.8307" y="352.7179">1..*</text></g><!--link Pedido to Item--><g class="link" data-entity-1="Pedido" data-entity-2="Item" data-source-line="63" data-uid="lnk35" id="link_Pedido_Item"><path codeLine="63" d="M1714.62,610.77 C1779.26,550.56 1887.01,450.18 1951.61,390" fill="none" id="Pedido-Item" style="stroke:#181818;stroke-width:1;"/><polygon fill="#000000" points="1806.3485,488.0883,1797.727,492.1032,1801.7334,496.4041,1806.3485,488.0883" style="stroke:#000000;stroke-width:1;"/><text fill="#000000" font-family="sans-serif" font-size="13" lengthAdjust="spacing" textLength="25.7588" x="1811.69" y="495.9969">tem</text><text fill="#000000" font-family="sans-serif" font-size="13" lengthAdjust="spacing" textLength="8.271" x="1713.4707" y="600.0975">1</text><text fill="#000000" font-family="sans-serif" font-size="13" lengthAdjust="spacing" textLength="23.0356" x="1919.7106" y="409.8115">1..*</text></g><!--link UtilizadorNaoRegistado to Menu--><g class="link" data-entity-1="UtilizadorNaoRegistado" data-entity-2="Menu" data-source-line="64" data-uid="lnk36" id="link_UtilizadorNaoRegistado_Menu"><path codeLine="64" d="M559.38,176.4 C610.74,184.77 677.63,195.99 736.79,206.93 C780.93,215.09 792.51,215.03 835.79,226.93 C951.19,258.67 1084.98,310.68 1136.29,331.2" fill="none" id="UtilizadorNaoRegistado-Menu" style="stroke:#181818;stroke-width:1;"/><polygon fill="#000000" points="796.1192,205.7922,788.1448,200.6096,786.6215,206.2866,796.1192,205.7922" style="stroke:#000000;stroke-width:1;"/><text fill="#000000" font-family="sans-serif" font-size="13" lengthAdjust="spacing" textLength="15.6914" x="800.29" y="208.9969">v&#234;</text><text fill="#000000" font-family="sans-serif" font-size="13" lengthAdjust="spacing" textLength="8.271" x="567.0783" y="190.2748">1</text><text fill="#000000" font-family="sans-serif" font-size="13" lengthAdjust="spacing" textLength="8.271" x="1120.2039" y="323.3173">1</text></g><!--link FuncionarioDaBanca to Menu--><g class="link" data-entity-1="FuncionarioDaBanca" data-entity-2="Menu" data-source-line="66" data-uid="lnk38" id="link_FuncionarioDaBanca_Menu"><path codeLine="66" d="M508.87,708.42 C578.07,671.31 737.24,578.58 835.79,462.93 C854.87,440.54 842.51,421.92 865.79,403.93 C949.15,339.49 1083.94,337 1136.18,338.74" fill="none" id="FuncionarioDaBanca-Menu" style="stroke:#181818;stroke-width:1;"/><polygon fill="#000000" points="795.5976,451.9579,786.3129,454.0182,789.2972,459.0821,795.5976,451.9579" style="stroke:#000000;stroke-width:1;"/><text fill="#000000" font-family="sans-serif" font-size="13" lengthAdjust="spacing" textLength="15.6914" x="800.29" y="458.9969">v&#234;</text><text fill="#000000" font-family="sans-serif" font-size="13" lengthAdjust="spacing" textLength="8.271" x="510.3859" y="697.8484">1</text><text fill="#000000" font-family="sans-serif" font-size="13" lengthAdjust="spacing" textLength="8.271" x="1119.9805" y="356.3876">1</text></g><!--link FuncionarioDaCozinha to Menu--><g class="link" data-entity-1="FuncionarioDaCozinha" data-entity-2="Menu" data-source-line="67" data-uid="lnk39" id="link_FuncionarioDaCozinha_Menu"><path codeLine="67" d="M555.6,482.97 C607.76,475.65 676.84,464.3 736.79,448.93 C751.49,445.16 851.18,408.06 865.79,403.93 C965.68,375.67 1087.74,352.5 1136.36,343.72" fill="none" id="FuncionarioDaCozinha-Menu" style="stroke:#181818;stroke-width:1;"/><polygon fill="#000000" points="796.1522,404.3306,786.6712,403.5816,788.0417,409.2975,796.1522,404.3306" style="stroke:#000000;stroke-width:1;"/><text fill="#000000" font-family="sans-serif" font-size="13" lengthAdjust="spacing" textLength="15.6914" x="800.29" y="409.9969">v&#234;</text><text fill="#000000" font-family="sans-serif" font-size="13" lengthAdjust="spacing" textLength="8.271" x="563.5094" y="478.4336">1</text><text fill="#000000" font-family="sans-serif" font-size="13" lengthAdjust="spacing" textLength="8.271" x="1120.318" y="337.6001">1</text></g><!--link FuncionarioDaCozinha to Pedido--><g class="link" data-entity-1="FuncionarioDaCozinha" data-entity-2="Pedido" data-source-line="70" data-uid="lnk42" id="link_FuncionarioDaCozinha_Pedido"><path codeLine="70" d="M555.78,492.92 C769.31,493.78 1344.1,502.03 1521.86,564.93 C1550.6,575.1 1578.8,593.07 1602.06,610.74" fill="none" id="FuncionarioDaCozinha-Pedido" style="stroke:#181818;stroke-width:1;"/><polygon fill="#000000" points="1138.7986,490.0559,1130.1392,486.1233,1129.4815,491.9642,1138.7986,490.0559" style="stroke:#000000;stroke-width:1;"/><text fill="#000000" font-family="sans-serif" font-size="13" lengthAdjust="spacing" textLength="45.9507" x="1142.83" y="493.9969">conclui</text><text fill="#000000" font-family="sans-serif" font-size="13" lengthAdjust="spacing" textLength="8.271" x="563.4373" y="505.66">1</text><text fill="#000000" font-family="sans-serif" font-size="13" lengthAdjust="spacing" textLength="23.0356" x="1569.7618" y="600.0634">1..*</text></g><!--link Pedido to estadoDeAlteracaoDoPedido--><g class="link" data-entity-1="Pedido" data-entity-2="estadoDeAlteracaoDoPedido" data-source-line="71" data-uid="lnk43" id="link_Pedido_estadoDeAlteracaoDoPedido"><path codeLine="71" d="M1767.92,683.63 C1810.98,692.75 1860.42,703.22 1903,712.24" fill="none" id="Pedido-estadoDeAlteracaoDoPedido" style="stroke:#181818;stroke-width:1;"/><polygon fill="#000000" points="1807.5815,682.5324,1799.3417,677.7831,1798.1237,683.5334,1807.5815,682.5324" style="stroke:#000000;stroke-width:1;"/><text fill="#000000" font-family="sans-serif" font-size="13" lengthAdjust="spacing" textLength="25.7588" x="1811.69" y="685.9969">tem</text><text fill="#000000" font-family="sans-serif" font-size="13" lengthAdjust="spacing" textLength="8.271" x="1775.8148" y="697.8248">1</text><text fill="#000000" font-family="sans-serif" font-size="13" lengthAdjust="spacing" textLength="8.271" x="1887.1258" y="723.2699">1</text></g><!--link Pedido to estadoDeConclusaoDoPedido--><g class="link" data-entity-1="Pedido" data-entity-2="estadoDeConclusaoDoPedido" data-source-line="72" data-uid="lnk44" id="link_Pedido_estadoDeConclusaoDoPedido"><path codeLine="72" d="M1767.92,638.23 C1810.1,629.3 1858.39,619.07 1900.36,610.17" fill="none" id="Pedido-estadoDeConclusaoDoPedido" style="stroke:#181818;stroke-width:1;"/><polygon fill="#000000" points="1807.5814,614.4601,1798.1236,613.4597,1799.3419,619.2099,1807.5814,614.4601" style="stroke:#000000;stroke-width:1;"/><text fill="#000000" font-family="sans-serif" font-size="13" lengthAdjust="spacing" textLength="25.7588" x="1811.69" y="619.9969">tem</text><text fill="#000000" font-family="sans-serif" font-size="13" lengthAdjust="spacing" textLength="8.271" x="1775.8148" y="649.2327">1</text><text fill="#000000" font-family="sans-serif" font-size="13" lengthAdjust="spacing" textLength="8.271" x="1884.2917" y="624.426">1</text></g><!--link Ticket to Pedido--><g class="link" data-entity-1="Ticket" data-entity-2="Pedido" data-source-line="73" data-uid="lnk45" id="link_Ticket_Pedido"><path codeLine="73" d="M1183.22,660.93 C1247.91,660.93 1432.26,660.93 1551.51,660.93" fill="none" id="Ticket-Pedido" style="stroke:#181818;stroke-width:1;"/><polygon fill="#000000" points="1491.86,652.4964,1482.8149,649.5575,1482.8149,655.4353,1491.86,652.4964" style="stroke:#000000;stroke-width:1;"/><text fill="#000000" font-family="sans-serif" font-size="13" lengthAdjust="spacing" textLength="25.7588" x="1495.86" y="656.9969">tem</text><text fill="#000000" font-family="sans-serif" font-size="13" lengthAdjust="spacing" textLength="8.271" x="1190.8878" y="675.0308">1</text><text fill="#000000" font-family="sans-serif" font-size="13" lengthAdjust="spacing" textLength="23.0356" x="1520.8388" y="673.4815">1..*</text></g><!--link FuncionarioDaBanca to Ticket--><g class="link" data-entity-1="FuncionarioDaBanca" data-entity-2="Ticket" data-source-line="74" data-uid="lnk46" id="link_FuncionarioDaBanca_Ticket"><path codeLine="74" d="M549.32,718.85 C701.59,704.36 1042.27,671.93 1134.45,663.15" fill="none" id="FuncionarioDaBanca-Ticket" style="stroke:#181818;stroke-width:1;"/><polygon fill="#000000" points="776.7675,684.0226,767.4846,681.954,768.0416,687.8054,776.7675,684.0226" style="stroke:#000000;stroke-width:1;"/><text fill="#000000" font-family="sans-serif" font-size="13" lengthAdjust="spacing" textLength="54.1455" x="780.79" y="688.9969">imprime</text><text fill="#000000" font-family="sans-serif" font-size="13" lengthAdjust="spacing" textLength="8.271" x="557.148" y="730.9649">1</text><text fill="#000000" font-family="sans-serif" font-size="13" lengthAdjust="spacing" textLength="23.0356" x="1103.6064" y="677.358">1..*</text></g><!--SRC=[hLHBRjim4Dtp50Cj2oH0jruOIEqMxQ91KBG7691JQn2HL4agYmGzJHT5k-qHTB4E9SkHOybs0Az4QjxZlFcMR0WifTARg2hwdY1v2Bmf4nWEf1DxfyeCqXnqHL4fNM6CS6CiEuufeF41bFE9UfxQjxH_eB6WlTF4yhJnu6ZJ_jFiWUGMnMHhxyWbYY1ki4boPetjx_QNL-GCvBS7jvyIMNWITvRMFb_KZmO5Rz0CFsgHxRTdwycW-ZcmFvDhXBsxtv5XKVIa32Ryw0EkQHKODGg_jodNM0hFrv4twZo8kEnW5F-Tbp0IXQpLHQWn85Jq83mCO94ZoC7GGMWKasHiJJULaCSQiZwAEd3txtq7UuvXeAqanLKJpwLzQ9pKm65WlyPtw3IEOpYqNhgGUnvM_f5TEQzWQx-qXc-9AtxCRNgB_WjjkC_HICKquj8wlhA-fwHUJ4xnje2hA_bSNxyfkjPTW5GJONaKs1T_0HiA74vW3yjybekfsfn5p1Ep0qxqs7GaTHuexAOYl9fNvP9bMZVxKtBoHbcgxSpC0sPQOKSOIlJG_ftFmZxeM2H7aCCqlCxrOHUTdSZGHtjInnv9T_k89r9RpA-wkMeKysjkeFH3D2EcXvmCk7zZ0Mphm9PW-Hy0]--></g></svg>